<svg xmlns="http://www.w3.org/2000/svg" viewBox="0 0 64 64" role="img" aria-label="Icone Copa Tracker">
  <defs>
    <linearGradient id="bg" x1="0" y1="0" x2="1" y2="1">
      <stop offset="0%" stop-color="#0f8f4d"/>
      <stop offset="100%" stop-color="#0d5bd7"/>
    </linearGradient>
  </defs>
  <rect x="2" y="2" width="60" height="60" rx="14" fill="url(#bg)"/>
  <circle cx="32" cy="32" r="18" fill="#ffffff"/>
  <polygon points="32,22 35.5,29 43.2,29.8 37.6,34.9 39.2,42.4 32,38.3 24.8,42.4 26.4,34.9 20.8,29.8 28.5,29" fill="#111111"/>
  <path d="M22 44c3.2-2.8 6.4-4.2 10-4.2s6.8 1.4 10 4.2" fill="none" stroke="#111111" stroke-width="2" stroke-linecap="round"/>
  <path d="M17 25c3.3 0 6.2-1 8.5-3" fill="none" stroke="#111111" stroke-width="2" stroke-linecap="round"/>
  <path d="M47 25c-3.3 0-6.2-1-8.5-3" fill="none" stroke="#111111" stroke-width="2" stroke-linecap="round"/>
</svg>

